# xmcd
# 
# Track frame offsets:
#     150
#     24717
#     45082
#     67470
#     93205
#     112450
#     134735
#     147455
# 
# Disc length: 2229
# 
# Revision: 0
# Processed by: cddbd v1.5.2PL0 Copyright (c) Steve Scherf et al.
# Submitted via: BonkEnc v1.0.8
# 
DISCID=7e08b308
DTITLE=Janne Da Arc - CHAOS MODE
DYEAR=1999
DGENRE=Rock
TTITLE0=Desperate
TTITLE1=R-TYPE｢瞳の色｣
TTITLE2=Psycho Dance
TTITLE3=song
TTITLE4=Labyrinth
TTITLE5=Strange Voice
TTITLE6=MISTAKE
TTITLE7=Jesus Christ
EXTD=
EXTT0=
EXTT1=
EXTT2=
EXTT3=
EXTT4=
EXTT5=
EXTT6=
EXTT7=
PLAYORDER=
